<?xml version="1.0" ?>
<!-- Generator: Adobe Illustrator 16.0.0, SVG Export Plug-In . SVG Version: 6.00 Build 0)  -->
<!DOCTYPE svg PUBLIC "-//W3C//DTD SVG 1.1//EN" "http://www.w3.org/Graphics/SVG/1.1/DTD/svg11.dtd">
<svg version="1.1" id="Layer_1" xmlns="http://www.w3.org/2000/svg" xmlns:xlink="http://www.w3.org/1999/xlink" x="0px" y="0px"
	 width="220px" height="86.4px" viewBox="0 0 220 86.4" enable-background="new 0 0 220 86.4" xml:space="preserve">
<g enable-background="new    ">
	<path d="M88.599,33.291h1.738v6.843h8.889v-6.843h1.738v15.402h-1.738v-6.931h-8.889v6.931h-1.738V33.291z"/>
	<path d="M105.319,33.291h11.134v1.584h-9.396v5.259h8.406v1.585h-8.406v5.391h9.505v1.584h-11.244V33.291z"/>
	<path d="M125.758,33.18h1.629l7.019,15.513h-1.87l-1.805-4.07h-8.383l-1.826,4.07h-1.783L125.758,33.18z M130.049,43.06
		l-3.498-7.855l-3.521,7.855H130.049z"/>
	<path d="M137.439,33.291h5.346c4.842,0,8.186,3.322,8.186,7.657v0.044c0,4.335-3.344,7.701-8.186,7.701h-5.346V33.291z
		 M142.785,47.087c3.895,0,6.382-2.641,6.382-6.051v-0.044c0-3.41-2.487-6.095-6.382-6.095h-3.607v12.189H142.785z"/>
	<path d="M153.41,46.449l1.078-1.276c1.606,1.452,3.146,2.179,5.281,2.179c2.068,0,3.432-1.101,3.432-2.619v-0.044
		c0-1.43-0.77-2.244-4.004-2.926c-3.543-0.771-5.171-1.915-5.171-4.445v-0.044c0-2.42,2.134-4.202,5.061-4.202
		c2.245,0,3.851,0.638,5.413,1.892l-1.012,1.343c-1.431-1.166-2.861-1.672-4.445-1.672c-2.002,0-3.278,1.1-3.278,2.486v0.044
		c0,1.452,0.792,2.266,4.181,2.992c3.433,0.748,5.017,2.002,5.017,4.356v0.044c0,2.641-2.2,4.356-5.259,4.356
		C157.261,48.913,155.259,48.099,153.41,46.449z"/>
	<path d="M174.86,42.246v-8.955h1.737v8.846c0,3.322,1.761,5.192,4.709,5.192c2.839,0,4.643-1.716,4.643-5.083v-8.955h1.738v8.823
		c0,4.489-2.574,6.821-6.424,6.821C177.457,48.935,174.86,46.603,174.86,42.246z"/>
	<path d="M191.8,33.291h5.765c3.477,0,5.766,1.849,5.766,4.885v0.044c0,3.322-2.773,5.039-6.051,5.039h-3.741v5.435H191.8V33.291z
		 M197.345,41.675c2.552,0,4.225-1.364,4.225-3.389v-0.044c0-2.2-1.65-3.345-4.137-3.345h-3.895v6.777H197.345z"/>
	<path d="M206.299,46.383h2.023v2.311h-2.023V46.383z M206.32,34.545v-1.254h1.98v1.254l-0.528,9.792h-0.946L206.32,34.545z"/>
</g>
<g>
	<path fill="#FFFFFF" stroke="#000000" stroke-width="3" d="M5.4,11.443c-1.2,0-1.9,0.7-1.9,2v68.5c0,1.301,0.7,2,1.9,2h68.5
		c1.4,0,2.101-0.699,2.101-2v-68.5c0-1.3-0.7-2-2.101-2H5.4z"/>
	<path fill="none" stroke="#000000" stroke-width="3" d="M3.5,13.443v68.5c0,1.301,0.7,2,1.9,2h68.5c1.4,0,2.101-0.699,2.101-2
		v-68.5c0-1.3-0.7-2-2.101-2H5.4C4.2,11.443,3.5,12.143,3.5,13.443"/>
</g>
<g>
	<path fill="#A8D2E5" d="M41.58,13.643l-1-0.101c-2.8-0.2-9.6,0.8-20.7,2.9c-2.4,0.399-4.4,0.8-6,1.1c-2,0.5-5,1.3-8.9,2.5v5.2
		l0.2,0.3c-0.1,0-0.2,0-0.2,0.2v2c0.9,0,1.5,0,1.8,0l0.1,0.8c0.1,0.4,0.5,0.7,1.1,0.5c1,0,4.6-0.2,11-0.3l-4.8,1.3
		c0,0.2-0.2,0.3-0.3,0.5c-0.2,0.5-0.3,0.8-0.2,1.2c0,1.2,1.5,1.8,4.2,2l10.2,1l-20.9,3.799c-0.3,0.201-0.6,0.4-0.8,0.801
		c-0.5,0.5-0.5,1-0.2,1.4c-0.6,0.299-1,0.799-1.1,1.699c-0.2,0.899,0.2,1.6,1.3,1.6c14.6,0,21.9,0.5,21.9,1.201
		c0,0.1-0.8,0.199-2.3,0.199c-2.8-0.101-4.5-0.101-5-0.101c-2.6,0.101-4.9,0.4-6.8,0.8c-2.2,0.5-3.2,1.102-2.9,1.899l-0.1,0.4
		c0.2,0.301,0.5,0.801,1,1.1c0.8,0.701,5.7,1.9,14.7,3.701l-13.7,0.799l-0.4,1.101l-0.6,2.602l1.4,1.1l0.1,0.5
		c0,0,0.9,0.199,2.7,0.5c1.8,0.3,2.8,0.5,2.8,0.699c0.3,0.201,0,0.5-0.9,0.701c-0.4,0.1-1.2,0.199-2.1,0.398
		c-1.3,0.399,0.7,1.5,6,3.198l6.2,1.5l-18.4,2c-0.4,0.201-0.6,0.402-0.8,0.701c-0.1,0.299-0.3,0.4-0.7,0.5
		c-0.4,0.101-0.6,0.201-0.8,0.5l-0.4,1c1.4,0.701,5.3,1.5,11.4,2.201c5.9,0.799,8.7,1.098,8.8,1.299s2.1,0.5,5.9,0.9
		c1.9,0.1,3.9,0.301,5.8,0.5l1.4-1.103c1.2-0.299,1-1-0.6-1.698l-8.2-1c0-0.101-0.5-0.398-1.8-0.699c-1.7-0.4-2.7-0.699-3.1-0.9
		c2-0.1,3.3-0.201,3.5-0.299c2.2,0,3.3-0.5,3.4-1.201c0.1-0.399,1-0.899,3-1.299c1.6-0.402,2.5-0.701,2.4-0.801
		c1.1,0.397,1.6-0.4,1.6-2.4c0-0.6-0.4-1.1-1-1.399l-1-0.199l2.1-1.601c1.1-1.301,1.4-2.1,0.7-2.5l-12.1-1.899l13.5-1.199
		c1.3-0.701,1.9-1.5,1.8-2.701c0.1-1.199-0.9-2.199-2.9-3l-10-1l12.7,0.101c1.2-0.898,1.7-1.8,1.7-2.898c0-0.801-0.2-1.4-0.7-1.9
		c-0.6-0.5-1.1-0.801-1.7-0.801c-0.7-0.5-2-1-3.9-1.398c-2.2-0.602-4.4-0.899-6.7-0.899l-12.4-0.9l20.7-2.6
		c1.3-1.5,1.9-2.9,1.7-3.701c0-0.898,0-1.5-0.1-1.7c-0.2-0.6-0.5-0.8-1.3-1c-1.3-0.1-4-0.199-8.1-0.3h-5.7l3.5-0.8
		c2.5-0.5,4.3-0.7,5.5-0.5c1.9,0,2.6-0.3,2.1-1.2c3.3-0.899,4.6-2.3,3.7-4.2c-0.3-0.8-1.2-1.3-2.6-1.399l-19.9,1.1l9.4-3.2
		c6.4-2.1,10.2-3,11.4-2.8c0.6-0.2,1-1.1,1.1-3C42.38,14.343,42.18,13.843,41.58,13.643z"/>
</g>
<g>
	<path fill="#537DB9" d="M31.9,27.143c1.2,0.199,0.2,0.699-3,1.8c-4.2,1.2-6.9,2.1-8.3,2.6c-1.6,0.601,0.1,1.2,5.3,2
		c2.3,0.3,5.3,0.701,9,1.101c0.2,0.101-3,0.699-9.6,2.199c-7.6,1.699-12.2,2.9-13.9,3.699c-1.8,0.801,2.3,1.801,12.4,3
		c4.3,0.601,9.5,1.101,15.7,1.601c-2.1,0.2-5,0.301-8.4,0.602c-11.6,1-17.7,1.799-18.4,2.1c-0.3,0.3,1.1,0.699,4.2,1.199
		c12,1.801,18.9,3.201,21,3.801c0.3,0.199-1.8,0.601-6.3,0.9c-4.5,0.5-8.3,0.898-11.7,1.299c-3.2,0.5-5,0.9-5.2,1.5
		c-0.3,0.5,0.4,1,2.1,1.701c1.3,0.6,6.5,1.199,15.7,1.799c-0.8,0-3.5,0.201-8.2,0.5c-4.8,0.4-6.7,0.9-5.8,1.5
		c0.9,0.701,3.7,1.5,8.4,2.201c1.6,0.299,3.2,0.398,5.1,0.5c1.4,0.098,2.4,0.299,3,0.5l-11.3,1.299c-3.6,0.4-6.9,1-9.7,1.701
		c-2.3,0.598-3.6,1.098-3.9,1.299c-0.4,0.5,0.6,1,3.1,1.701c1.8,0.398,5.7,1.098,11.7,2c6.5,1,11.1,1.5,13.8,1.598
		c-0.3-0.098-7.2-1.598-20.4-4.5c0.3-0.299,4-1,11.1-2c6.7-0.897,10.2-2,10.5-3.5c0.1-0.897-1.5-1.498-5-1.799
		c-4.6-0.299-8-0.6-10.1-0.899c0.8-0.101,2.5-0.101,4.9-0.3c3.6-0.301,6.3-0.5,8.4-1c2-0.301,3-0.801,3.1-1.1
		c0.1-0.301-2.2-0.9-6.7-1.5c-4.7-0.701-9-1.201-13-1.4c10.3-1.1,15.6-1.7,16.1-1.801c3.9-0.699,5.9-1.199,6.4-1.6
		c0.4-0.4,0.4-0.9-0.3-1.5c-0.6-0.601-1.7-1.101-3.3-1.301c-9.7-1.398-15-2.101-16.2-2.101c-1.2,0,1.9-0.199,9.3-0.5
		c7.5-0.6,11.5-1.299,12-2.399c0.6-1.101-2.9-2.3-10.5-3.3l-15.7-1.801c-2.4-0.199,0-1,7-2.5l14.7-3c1.9-0.5,0.5-1.299-4.3-2.398
		c-3.4-0.801-6.6-1.4-9.4-1.801c-0.5-0.1,1.6-0.5,6-1.3c5.4-0.899,8.2-1.8,8.2-2.8c0.1-1-3-1.7-9.5-1.9l-12.7-0.5
		c-1.4-0.1,1.7-1.3,9.4-3.6c8.4-2.4,12.6-4,12.6-4.5c0.2-1.7-5.6-1.2-17.2,1.5l-17.5,4.3l23.9-3.8c1.1-0.2-1,0.7-6.6,2.8
		c-7,2.8-11.4,4.7-13,5.3c-1.9,1,0.5,1.4,7.5,1.2L31.9,27.143z"/>
</g>
<g>
	<g>
		<path fill="#D90026" stroke="#000000" stroke-width="3" d="M52.1,67.842c-6.4-0.5-9.7,1-10,4.701c-0.2,2,0.6,3.701,2.4,5.201
			c1.8,1.598,4,2.5,6.7,2.699c2.7,0.199,5-0.4,6.9-1.699c2.1-1.201,3.1-2.902,3.2-4.902C61.601,70.342,58.5,68.244,52.1,67.842z"/>
		<path fill="#D90026" stroke="#000000" stroke-width="3" d="M42.1,72.543c-0.2,2,0.6,3.701,2.4,5.201c1.8,1.598,4,2.5,6.7,2.699
			c2.7,0.199,5-0.4,6.9-1.699c2.1-1.201,3.1-2.902,3.2-4.902c0.301-3.5-2.8-5.598-9.2-6C45.7,67.342,42.4,68.842,42.1,72.543"/>
	</g>
	<g>
		<path fill="#D90026" stroke="#000000" stroke-width="3" d="M65.7,7.243c-1.4-2.6-4.301-4.2-8.7-4.6c-5-0.601-8.8,0.699-11.4,3.699
			c-2.9,3.4-4,8.4-3.5,15.2s1.5,13.3,3.2,19.5c1.3,5.5,2.2,11.5,2.4,17.702c0,1.6,0.4,2.799,1,3.6c0.6,0.5,1.4,1,2.7,1.101
			c1.8,0.301,3.3-0.101,4.5-1.301c0.8-0.8,1.4-1.699,1.6-2.8c1.8-5.1,3.5-10.301,5.101-15.7c3.199-10.7,4.899-18.2,4.899-22.5
			C67.7,14.343,67.101,9.743,65.7,7.243z"/>
		<path fill="#D90026" stroke="#000000" stroke-width="3" d="M65.7,7.243c1.4,2.5,2,7.1,1.8,13.9c0,4.3-1.7,11.8-4.899,22.5
			C61,49.043,59.3,54.244,57.5,59.344c-0.2,1.101-0.8,2-1.6,2.8c-1.2,1.2-2.7,1.602-4.5,1.301c-1.3-0.101-2.1-0.601-2.7-1.101
			c-0.6-0.801-1-2-1-3.6c-0.2-6.201-1.1-12.201-2.4-17.702c-1.7-6.199-2.7-12.7-3.2-19.5s0.6-11.8,3.5-15.2
			c2.6-3,6.4-4.3,11.4-3.699C61.399,3.043,64.3,4.643,65.7,7.243"/>
	</g>
</g>
<g>
	<path fill="none" stroke="#000000" stroke-width="3" d="M42.2,16.243c-0.3-4.5,1.6-8.1,5.7-10.8c2.1-1.4,4.1-2.3,6.3-2.7"/>
</g>
<g>
	<path fill="none" stroke="#000000" stroke-width="3" d="M46.5,42.843c-3.8-12.1-4.7-22.1-2.6-29.6c0.6-2.4,1.5-4.4,2.6-6
		c0.6-0.9,1.1-1.4,1.5-1.8"/>
</g>
<g enable-background="new    ">
	<path d="M88.708,54.139h3.913c1.118,0,2.015,0.338,2.587,0.91c0.442,0.442,0.702,1.079,0.702,1.794v0.026
		c0,1.508-1.04,2.392-2.47,2.652l2.795,3.718h-1.261l-2.639-3.536h-0.026h-2.574v3.536h-1.027V54.139z M92.53,58.781
		c1.365,0,2.34-0.702,2.34-1.872v-0.026c0-1.118-0.858-1.794-2.327-1.794h-2.808v3.692H92.53z"/>
	<path d="M99.914,54.139h6.578v0.937h-5.551v3.106h4.966v0.937h-4.966v3.186h5.616v0.936h-6.643V54.139z"/>
	<path d="M109.833,61.914l0.637-0.754c0.948,0.858,1.858,1.287,3.12,1.287c1.222,0,2.027-0.65,2.027-1.547v-0.026
		c0-0.845-0.455-1.326-2.365-1.729c-2.094-0.455-3.055-1.132-3.055-2.627v-0.025c0-1.431,1.26-2.483,2.99-2.483
		c1.326,0,2.275,0.377,3.198,1.118l-0.598,0.793c-0.846-0.688-1.69-0.988-2.627-0.988c-1.183,0-1.937,0.65-1.937,1.47v0.025
		c0,0.858,0.468,1.339,2.47,1.769c2.028,0.441,2.965,1.183,2.965,2.574v0.025c0,1.561-1.301,2.574-3.107,2.574
		C112.107,63.37,110.925,62.889,109.833,61.914z"/>
	<path d="M120.559,54.139h6.578v0.937h-5.552v3.106h4.966v0.937h-4.966v3.186h5.616v0.936h-6.643V54.139z"/>
	<path d="M134.441,54.075h0.963l4.146,9.165h-1.105l-1.065-2.405h-4.953l-1.079,2.405h-1.053L134.441,54.075z M136.977,59.912
		l-2.066-4.642l-2.08,4.642H136.977z"/>
	<path d="M143.152,54.139h3.912c1.119,0,2.016,0.338,2.588,0.91c0.441,0.442,0.701,1.079,0.701,1.794v0.026
		c0,1.508-1.039,2.392-2.47,2.652l2.796,3.718h-1.262l-2.639-3.536h-0.026h-2.574v3.536h-1.026V54.139z M146.975,58.781
		c1.364,0,2.34-0.702,2.34-1.872v-0.026c0-1.118-0.858-1.794-2.328-1.794h-2.808v3.692H146.975z"/>
	<path d="M153.954,58.716V58.69c0-2.574,1.925-4.706,4.603-4.706c1.65,0,2.639,0.585,3.549,1.442l-0.701,0.754
		c-0.768-0.728-1.626-1.248-2.861-1.248c-2.015,0-3.522,1.639-3.522,3.731v0.026c0,2.105,1.521,3.757,3.522,3.757
		c1.248,0,2.067-0.481,2.938-1.313l0.677,0.663c-0.949,0.962-1.99,1.6-3.641,1.6C155.892,63.396,153.954,61.329,153.954,58.716z"/>
	<path d="M165.759,54.139h1.026v4.043h5.253v-4.043h1.026v9.101h-1.026v-4.095h-5.253v4.095h-1.026V54.139z"/>
	<path d="M183.243,54.139h1.027v9.101h-1.027V54.139z"/>
	<path d="M188.742,54.139h0.962l5.733,7.294v-7.294h1.001v9.101h-0.819l-5.876-7.462v7.462h-1.001V54.139z"/>
	<path d="M200.416,58.716V58.69c0-2.574,1.924-4.706,4.602-4.706c1.651,0,2.64,0.585,3.549,1.442l-0.701,0.754
		c-0.768-0.728-1.625-1.248-2.86-1.248c-2.015,0-3.522,1.639-3.522,3.731v0.026c0,2.105,1.521,3.757,3.522,3.757
		c1.248,0,2.067-0.481,2.938-1.313l0.676,0.663c-0.949,0.962-1.989,1.6-3.641,1.6C202.354,63.396,200.416,61.329,200.416,58.716z"/>
</g>
</svg>
