<?xml version="1.0" encoding="UTF-8" standalone="no"?>
<!-- Generator: Adobe Illustrator 13.0.2, SVG Export Plug-In . SVG Version: 6.00 Build 14948)  -->
<svg
   xmlns:dc="http://purl.org/dc/elements/1.1/"
   xmlns:cc="http://creativecommons.org/ns#"
   xmlns:rdf="http://www.w3.org/1999/02/22-rdf-syntax-ns#"
   xmlns:svg="http://www.w3.org/2000/svg"
   xmlns="http://www.w3.org/2000/svg"
   xmlns:sodipodi="http://sodipodi.sourceforge.net/DTD/sodipodi-0.dtd"
   xmlns:inkscape="http://www.inkscape.org/namespaces/inkscape"
   version="1.0"
   id="Layer_1"
   x="0px"
   y="0px"
   width="453"
   height="49.852001"
   viewBox="0 0 520.484 49.852"
   enable-background="new 0 0 520.484 49.852"
   xml:space="preserve"
   sodipodi:version="0.32"
   inkscape:version="0.46"
   sodipodi:docname="Bulgari logo.svg"
   inkscape:output_extension="org.inkscape.output.svg.inkscape"><metadata
   id="metadata2443"><rdf:RDF><cc:Work
       rdf:about=""><dc:format>image/svg+xml</dc:format><dc:type
         rdf:resource="http://purl.org/dc/dcmitype/StillImage" /></cc:Work></rdf:RDF></metadata><defs
   id="defs2441"><inkscape:perspective
     sodipodi:type="inkscape:persp3d"
     inkscape:vp_x="0 : 24.926001 : 1"
     inkscape:vp_y="0 : 1000 : 0"
     inkscape:vp_z="520.48401 : 24.926001 : 1"
     inkscape:persp3d-origin="260.242 : 16.617334 : 1"
     id="perspective2445" /></defs><sodipodi:namedview
   inkscape:window-height="750"
   inkscape:window-width="1280"
   inkscape:pageshadow="2"
   inkscape:pageopacity="0.0"
   guidetolerance="10.0"
   gridtolerance="10.0"
   objecttolerance="10.0"
   borderopacity="1.0"
   bordercolor="#666666"
   pagecolor="#ffffff"
   id="base"
   showgrid="false"
   inkscape:zoom="2.2399618"
   inkscape:cx="233.10356"
   inkscape:cy="24.926001"
   inkscape:window-x="-8"
   inkscape:window-y="-8"
   inkscape:current-layer="Layer_1" />
<g
   id="g2436"
   transform="matrix(0.9866344,0,0,0.9866344,3.4782985,0.3331449)">
	<path
   d="M 511.862,40.324 L 511.862,9.528 C 511.862,6.668 512.23,4.864 512.966,4.113 C 514.086,2.965 515.869,2.391 518.317,2.391 L 520.484,2.391 L 520.484,1.09 L 494.794,1.09 L 494.794,2.391 L 496.916,2.391 C 498.331,2.391 499.687,2.672 500.984,3.235 C 501.896,3.656 502.502,4.161 502.797,4.746 C 503.18,5.52 503.372,7.114 503.372,9.528 L 503.372,40.324 C 503.372,43.183 503.018,44.989 502.31,45.738 C 501.189,46.886 499.391,47.461 496.915,47.461 L 494.793,47.461 L 494.793,48.762 L 520.483,48.762 L 520.483,47.461 L 518.316,47.461 C 516.902,47.461 515.559,47.18 514.293,46.617 C 513.349,46.196 512.73,45.692 512.437,45.106 C 512.053,44.332 511.862,42.739 511.862,40.324 L 511.862,40.324 z M 450.091,48.762 L 466.098,48.762 L 466.098,47.461 C 462.827,47.18 460.173,46.524 458.139,45.492 C 456.106,44.461 453.673,42.376 450.843,39.235 L 438.462,25.558 C 443.503,24.667 447.224,23.144 449.627,20.988 C 452.029,18.832 453.231,16.29 453.231,13.36 C 453.231,10.617 452.175,8.256 450.069,6.276 C 447.961,4.295 445.397,2.936 442.375,2.197 C 439.353,1.459 434.659,1.09 428.292,1.09 L 406.448,1.09 L 406.448,2.391 L 408.703,2.391 C 410.973,2.391 412.682,2.907 413.833,3.938 C 414.658,4.664 415.071,6.528 415.071,9.528 L 415.071,40.324 C 415.071,43.044 414.76,44.765 414.141,45.492 C 413.05,46.805 411.238,47.461 408.703,47.461 L 406.448,47.461 L 406.448,48.762 L 432.138,48.762 L 432.138,47.461 L 429.794,47.461 C 427.554,47.461 425.873,46.946 424.754,45.914 C 423.928,45.187 423.515,43.325 423.515,40.324 L 423.515,26.473 C 423.988,26.496 424.445,26.514 424.886,26.527 C 425.328,26.539 425.741,26.544 426.124,26.544 C 427.067,26.544 428.291,26.521 429.794,26.474 L 450.091,48.762 L 450.091,48.762 z M 425.993,24.293 C 425.726,24.293 425.388,24.288 424.975,24.276 C 424.562,24.264 424.076,24.258 423.515,24.258 L 423.515,4.43 C 426.434,3.985 428.748,3.762 430.458,3.762 C 434.319,3.762 437.422,4.694 439.765,6.557 C 442.11,8.42 443.282,10.84 443.282,13.817 C 443.282,16.864 441.829,19.371 438.926,21.34 C 436.022,23.309 431.711,24.293 425.993,24.293 L 425.993,24.293 z M 357.334,48.762 L 380.99,48.762 L 380.99,47.461 C 378.543,47.344 376.635,46.811 375.263,45.862 C 373.892,44.912 372.367,42.843 370.687,39.656 L 349.817,0 L 348.268,0 L 327.176,39.235 C 325.348,42.679 323.683,44.964 322.18,46.089 C 321.444,46.652 319.822,47.11 317.317,47.46 L 317.317,48.761 L 336.198,48.761 L 336.198,47.46 C 333.307,47.296 331.428,46.939 330.559,46.388 C 329.69,45.837 329.255,45.2 329.255,44.472 C 329.255,43.558 329.756,42.175 330.758,40.324 L 334.826,32.801 L 358.04,32.801 L 361.666,39.656 C 362.845,41.883 363.435,43.511 363.435,44.543 C 363.435,45.317 363.015,45.973 362.175,46.512 C 361.335,47.051 359.721,47.368 357.333,47.461 L 357.333,48.762 L 357.334,48.762 z M 356.803,30.199 L 336.199,30.199 L 346.634,10.934 L 356.803,30.199 L 356.803,30.199 z M 294.289,24.082 L 295.393,24.082 L 295.393,22.746 L 272.18,22.746 L 272.18,24.082 C 274.597,24.082 276.285,24.276 277.243,24.662 C 278.201,25.049 278.908,25.612 279.365,26.35 C 279.822,27.088 280.051,28.654 280.051,31.043 L 280.051,44.824 C 278.134,45.692 276.145,46.347 274.081,46.793 C 272.018,47.239 269.881,47.461 267.67,47.461 C 263.897,47.461 260.219,46.588 256.638,44.842 C 253.056,43.096 250.16,40.348 247.949,36.598 C 245.738,32.848 244.632,28.701 244.632,24.154 C 244.632,18.552 246.297,13.724 249.629,9.669 C 253.609,4.865 259.416,2.462 267.051,2.462 C 272.652,2.462 277.236,3.833 280.803,6.575 C 283.28,8.474 285.298,11.298 286.861,15.048 L 288.409,15.048 L 286.86,0 L 285.223,0 C 285.135,1.196 284.892,1.999 284.494,2.408 C 284.096,2.819 283.616,3.024 283.056,3.024 C 282.495,3.024 281.39,2.778 279.74,2.285 C 276.468,1.325 273.94,0.703 272.157,0.422 C 270.374,0.141 268.393,0 266.211,0 C 260.226,0 255.038,1.02 250.646,3.059 C 245.399,5.52 241.272,9.035 238.265,13.606 C 235.729,17.45 234.462,21.469 234.462,25.664 C 234.462,31.454 236.717,36.562 241.228,40.992 C 247.241,46.899 256.041,49.851 267.626,49.851 C 271.664,49.851 275.334,49.511 278.636,48.831 C 281.938,48.152 285.283,47.086 288.673,45.632 L 288.673,31.042 C 288.673,28.488 288.968,26.777 289.558,25.909 C 290.412,24.692 291.99,24.082 294.289,24.082 L 294.289,24.082 z M 207.556,48.762 L 212.685,35.824 L 211.226,35.578 C 209.693,38.531 208.16,40.694 206.627,42.065 C 205.094,43.435 203.399,44.39 201.542,44.929 C 199.685,45.468 196.457,45.738 191.858,45.738 L 187.481,45.738 C 183.619,45.738 181.319,45.621 180.583,45.386 C 179.846,45.153 179.301,44.788 178.947,44.296 C 178.475,43.57 178.239,42.234 178.239,40.288 L 178.239,10.336 C 178.239,7.501 178.475,5.708 178.947,4.957 C 179.418,4.207 180.296,3.586 181.578,3.094 C 182.86,2.602 185.093,2.368 188.277,2.391 L 188.277,1.09 L 161.127,1.09 L 161.127,2.391 L 163.382,2.391 C 165.652,2.391 167.362,2.907 168.511,3.938 C 169.336,4.688 169.75,6.551 169.75,9.528 L 169.75,40.289 C 169.75,43.008 169.44,44.743 168.821,45.492 C 167.73,46.805 165.917,47.461 163.382,47.461 L 161.127,47.461 L 161.127,48.762 L 207.556,48.762 L 207.556,48.762 z M 129.988,3.725 C 131.002,2.951 132.497,2.412 134.472,2.107 L 134.472,0.807 L 117.278,0.807 L 117.278,2.107 C 117.607,2.155 117.84,2.19 117.977,2.212 C 119.869,2.47 121.213,2.909 122.008,3.53 C 122.803,4.151 123.201,4.802 123.201,5.481 C 123.201,6.536 122.557,8.423 121.268,11.142 L 108.105,38.74 L 93.915,10.791 C 92.653,8.307 92.023,6.479 92.023,5.307 C 92.023,4.463 92.406,3.772 93.174,3.232 C 93.942,2.694 95.615,2.318 98.192,2.107 L 98.192,0.807 L 75.405,0.807 L 75.405,2.107 C 77.105,2.225 78.455,2.489 79.456,2.898 C 80.457,3.309 81.3,3.877 81.986,4.603 C 82.424,5.073 83.179,6.361 84.248,8.471 L 105.144,49.568 L 106.666,49.568 L 126.122,8.998 C 127.246,6.631 128.534,4.873 129.988,3.725 L 129.988,3.725 z M 46.192,27.992 C 44.273,26.446 41.379,25.321 37.513,24.617 C 40.83,23.703 43.34,22.303 45.04,20.416 C 46.74,18.53 47.59,16.391 47.59,14 C 47.59,11.211 46.506,8.744 44.34,6.6 C 42.173,4.455 39.034,2.961 34.921,2.117 C 32.206,1.555 28.6,1.274 24.103,1.274 L 0,1.274 L 0,2.574 L 2.098,2.574 C 4.209,2.574 5.8,3.09 6.869,4.121 C 7.664,4.895 8.062,6.758 8.062,9.711 L 8.062,40.508 C 8.062,43.18 7.747,44.926 7.116,45.746 C 6.101,47.012 4.428,47.644 2.097,47.644 L 0,47.644 L 0,48.946 L 26.325,48.946 C 32.604,48.946 37.273,48.448 40.33,47.451 C 43.388,46.456 45.794,44.873 47.549,42.705 C 49.303,40.538 50.181,38.269 50.181,35.903 C 50.182,32.786 48.852,30.149 46.192,27.992 L 46.192,27.992 z M 37.39,18.711 C 36.321,20.235 34.778,21.365 32.763,22.104 C 30.747,22.842 27.738,23.211 23.734,23.211 C 22.171,23.211 20.738,23.171 19.436,23.088 C 18.133,23.006 16.974,22.883 15.96,22.719 L 15.96,4.403 C 18.154,3.887 20.622,3.629 23.364,3.629 C 28.465,3.629 32.344,4.614 35.005,6.582 C 37.665,8.551 38.995,10.93 38.995,13.719 C 38.994,15.524 38.459,17.188 37.39,18.711 L 37.39,18.711 z M 40.639,36.5 C 40.639,39.313 39.336,41.674 36.731,43.584 C 34.126,45.495 30.341,46.449 25.378,46.449 C 22.279,46.449 19.139,46.133 15.959,45.5 L 15.959,25.953 C 16.7,25.836 17.672,25.755 18.879,25.707 C 20.086,25.661 21.539,25.637 23.239,25.637 C 27.16,25.637 30.45,26.129 33.111,27.115 C 35.771,28.098 37.691,29.447 38.87,31.157 C 40.049,32.868 40.639,34.649 40.639,36.5 L 40.639,36.5 z"
   id="path2438" />
</g>
</svg>